# xmcd
#
# Track frame offsets: 
#        150
#        16268
#        35099
#        48730
#        63150
#        76630
#        91470
#        108832
#        125139
#        140555
#        153529
#        169700
#        183567
#        198656
#
# Disc length: 2886 seconds
#
# Revision: 0
# Processed by: cddbd v1.5.2PL0 Copyright (c) Steve Scherf et al.
# Submitted via: ExactAudioCopy v0.99pb4
#
DISCID=c00b440e
DTITLE=Various Artist - Country Nights
DYEAR=1990
DGENRE=Country
TTITLE0=Alabama - When We Make Love
TTITLE1=Dan Seals - Addicted
TTITLE2=Highway 101 - Whiskey, If You Were a Woman
TTITLE3=Anne Murray - Could I Have This Dance
TTITLE4=Billy Joe Royal - Love Has No Right
TTITLE5=Don Williams - Just as Long as I Have You
TTITLE6=Michael Johnson - The Moon is Still Over Her Shoulder
TTITLE7=Steve Wariner - Small Town Girl
TTITLE8=The Judds - Why Not Me
TTITLE9=George Strait - let's Fall to Pieces Together
TTITLE10=Eddie Rabbit - On Second Thought
TTITLE11=ricky Van Shelton - I'll Leave This World Loving You
TTITLE12=Reba McEntire - Whoever's In New England
TTITLE13=Hank Williams, Jr.  - Country State of Mind
EXTD=
EXTT0=
EXTT1=
EXTT2=
EXTT3=
EXTT4=
EXTT5=
EXTT6=
EXTT7=
EXTT8=
EXTT9=
EXTT10=
EXTT11=
EXTT12=
EXTT13=
PLAYORDER=
